<svg id="组_4720" data-name="组 4720" xmlns="http://www.w3.org/2000/svg" width="232" height="83.446" viewBox="0 0 232 83.446">
  <g id="路径_600" data-name="路径 600" fill="rgba(222,84,255,0.1)">
    <path d="M 213.3122100830078 82.9462890625 L 0.5003754496574402 82.9462890625 L 0.5500835776329041 16.69307327270508 L 20.97097587585449 0.499997466802597 L 231.5 0.499997466802597 L 231.5 69.476806640625 L 213.3122100830078 82.9462890625 Z" stroke="none"/>
    <path d="M 21.14517211914063 1 L 1.049896240234375 16.93486022949219 L 1.000747680664063 82.4462890625 L 213.1472015380859 82.4462890625 L 231 69.22491455078125 L 231 1 L 21.14517211914063 1 M 20.79679870605469 0 L 232 0 L 232 69.72870635986328 L 213.4771728515625 83.4462890625 L 0 83.4462890625 L 0.050262451171875 16.4512939453125 L 20.79679870605469 0 Z" stroke="none" fill="#07d5fd"/>
  </g>
  <g id="路径_601" data-name="路径 601" transform="translate(4.871 4.818)" fill="rgba(7,213,253,0.2)">
    <path d="M 205.6523284912109 73.3101806640625 L 0.5000089406967163 73.3101806640625 L 0.5000089406967163 14.16558837890625 L 18.6255989074707 0.5000107884407043 L 221.7568359375 0.5000107884407043 L 221.7568359375 61.42425918579102 L 205.6523284912109 73.3101806640625 Z" stroke="none"/>
    <path d="M 18.79296875 1.000007629394531 L 1.000015258789063 14.4148063659668 L 1.000015258789063 72.8101806640625 L 205.4878082275391 72.8101806640625 L 221.2568359375 61.1718635559082 L 221.2568359375 1.000007629394531 L 18.79296875 1.000007629394531 M 18.45823669433594 7.62939453125e-06 L 222.2568359375 7.62939453125e-06 L 222.2568359375 61.67667770385742 L 205.8168640136719 73.8101806640625 L 1.52587890625e-05 73.8101806640625 L 1.52587890625e-05 13.9163703918457 L 18.45823669433594 7.62939453125e-06 Z" stroke="none" fill="#07d5fd"/>
  </g>
  <path id="路径_602" data-name="路径 602" d="M0,0H13.109L0,13.109Z" fill="#ec851f"/>
  <g id="路径_603" data-name="路径 603" transform="translate(231.766 83.446) rotate(180)" fill="none">
    <path d="M0,0H9.6L0,9.6Z" stroke="none"/>
    <path d="M 0.9999961853027344 0.9999961853027344 L 0.9999961853027344 7.182816505432129 L 7.182816505432129 0.9999961853027344 L 0.9999961853027344 0.9999961853027344 M -3.814697265625e-06 -3.814697265625e-06 L 9.597036361694336 -3.814697265625e-06 L -3.814697265625e-06 9.597036361694336 L -3.814697265625e-06 -3.814697265625e-06 Z" stroke="none" fill="#07d5fd"/>
  </g>
</svg>
